<svg xmlns="http://www.w3.org/2000/svg" shape-rendering="crispEdges" viewBox="0 -0.5 32 32" width="32" height="32"><metadata>Generated with pixel-perfect-svg https://github.com/kagof/pixel-perfect-svg</metadata><path stroke="#2b2928" d="M19,21h1M21,21h1M18,22h1M20,22h1M22,22h1M17,23h1M22,23h1M10,24h7M20,24h1M22,24h2M9,25h1M24,25h1M7,26h2M23,26h1M6,27h1M21,27h2M7,28h1M20,28h1M8,29h2M12,29h1M15,29h1M20,29h1M10,30h1M13,30h1M16,30h1M21,30h1"/><path stroke="#8cadc6" d="M19,22h1M18,23h1M18,24h2M21,24h1M12,25h5M19,25h5M11,26h3M15,26h3M20,26h3M12,27h1M16,27h3M17,28h1"/><path stroke="#5a7b94" d="M21,22h1M20,23h2M10,25h2M9,26h2M7,27h4M8,28h2M13,29h2M18,29h2M14,30h1M19,30h1"/><path stroke="#6d90a8" d="M19,23h1M17,24h1M17,25h2M14,26h1M18,26h2M11,27h1M13,27h3M19,27h2M10,28h7M18,28h2M10,29h2M16,29h2M11,30h1M17,30h1"/><path stroke="#ffffff" d="M12,30h1M18,30h1"/><path stroke="#b5d6de" d="M15,30h1M20,30h1"/></svg>
