<svg xmlns="http://www.w3.org/2000/svg" shape-rendering="crispEdges" viewBox="0 -0.5 32 32" width="32" height="32"><metadata>Generated with pixel-perfect-svg https://github.com/kagof/pixel-perfect-svg</metadata><path stroke="#2b2928" d="M19,22h1M21,22h1M18,23h1M20,23h1M22,23h1M11,24h7M22,24h1M10,25h1M20,25h1M22,25h2M9,26h1M24,26h1M8,27h1M23,27h1M7,28h1M20,28h3M8,29h1M12,29h1M15,29h1M20,29h1M9,30h2M13,30h1M16,30h1M21,30h1"/><path stroke="#8cadc6" d="M19,23h1M18,24h1M12,25h5M18,25h2M21,25h1M11,26h7M19,26h5M11,27h3M15,27h4M20,27h3M12,28h1M16,28h3M17,29h1"/><path stroke="#5a7b94" d="M21,23h1M20,24h2M11,25h1M10,26h1M9,27h2M8,28h2M9,29h1M13,29h2M18,29h2M14,30h1M19,30h1"/><path stroke="#6d90a8" d="M19,24h1M17,25h1M18,26h1M14,27h1M19,27h1M10,28h2M13,28h3M19,28h1M10,29h2M16,29h1M11,30h1M17,30h1"/><path stroke="#ffffff" d="M12,30h1M18,30h1"/><path stroke="#b5d6de" d="M15,30h1M20,30h1"/></svg>
