<svg xmlns="http://www.w3.org/2000/svg" shape-rendering="crispEdges" viewBox="0 -0.5 32 32" width="32" height="32"><metadata>Generated with pixel-perfect-svg https://github.com/kagof/pixel-perfect-svg</metadata><path stroke="#2b2928" d="M19,20h1M21,20h1M18,21h1M20,21h1M22,21h1M17,22h1M22,22h1M11,23h6M20,23h1M22,23h2M10,24h1M24,24h1M9,25h1M23,25h1M9,26h1M21,26h2M8,27h1M20,27h1M8,28h1M20,28h1M9,29h1M12,29h1M15,29h1M20,29h1M10,30h1M13,30h1M16,30h1M21,30h1"/><path stroke="#8cadc6" d="M19,21h1M18,22h1M18,23h2M21,23h1M12,24h4M19,24h5M11,25h6M20,25h3M11,26h3M15,26h3M12,27h1M16,27h3M17,28h1"/><path stroke="#5a7b94" d="M21,21h1M20,22h2M11,24h1M10,25h1M10,26h1M9,27h2M9,28h1M13,28h3M18,28h2M13,29h2M18,29h2M14,30h1M19,30h1"/><path stroke="#6d90a8" d="M19,22h1M17,23h1M16,24h3M17,25h3M14,26h1M18,26h3M11,27h1M13,27h3M19,27h1M10,28h3M16,28h1M10,29h2M16,29h2M11,30h1M17,30h1"/><path stroke="#ffffff" d="M12,30h1M18,30h1"/><path stroke="#b5d6de" d="M15,30h1M20,30h1"/></svg>
