<svg xmlns="http://www.w3.org/2000/svg" shape-rendering="crispEdges" viewBox="0 -0.5 32 32" width="32" height="32"><metadata>Generated with pixel-perfect-svg https://github.com/kagof/pixel-perfect-svg</metadata><path stroke="#2b2928" d="M18,19h1M20,19h1M17,20h1M19,20h1M21,20h1M16,21h1M21,21h1M16,22h1M19,22h1M21,22h2M15,23h1M23,23h1M14,24h1M22,24h1M13,25h1M21,25h1M12,26h1M20,26h1M8,27h4M20,27h1M7,28h1M11,28h1M20,28h1M8,29h1M16,29h1M20,29h1M9,30h2M17,30h1M21,30h1"/><path stroke="#8cadc6" d="M18,20h1M17,21h1M17,22h2M20,22h1M18,23h5M15,24h1M19,24h3M14,25h3M15,26h3M16,27h4M13,28h2M18,28h1M14,29h1"/><path stroke="#5a7b94" d="M20,20h1M19,21h2M8,28h3M19,28h1M9,29h3M15,29h1M19,29h1M11,30h1"/><path stroke="#6d90a8" d="M18,21h1M16,23h2M16,24h3M17,25h4M13,26h2M18,26h2M12,27h4M12,28h1M15,28h3M12,29h2M17,29h2M12,30h3M18,30h1"/><path stroke="#ffffff" d="M15,30h1M19,30h1"/><path stroke="#b5d6de" d="M16,30h1M20,30h1"/></svg>
