<svg xmlns="http://www.w3.org/2000/svg" shape-rendering="crispEdges" viewBox="0 -0.5 32 32" width="32" height="32"><metadata>Generated with pixel-perfect-svg https://github.com/kagof/pixel-perfect-svg</metadata><path stroke="#2b2928" d="M19,16h1M18,17h1M20,17h1M18,18h1M21,18h1M17,19h1M21,19h1M16,20h1M18,20h1M21,20h1M15,21h1M21,21h1M15,22h1M21,22h1M15,23h1M21,23h1M14,24h1M20,24h1M13,25h1M20,25h1M12,26h1M20,26h1M11,27h1M20,27h1M9,28h3M20,28h1M8,29h1M16,29h1M20,29h1M7,30h1M17,30h1M21,30h1"/><path stroke="#8cadc6" d="M19,17h1M19,18h2M18,19h3M19,20h2M17,21h3M16,22h1M18,22h1M15,24h2M14,25h4M15,26h5M16,27h4M13,28h2M18,28h1M14,29h1"/><path stroke="#5a7b94" d="M17,20h1M16,21h1M19,28h1M9,29h3M15,29h1M19,29h1M8,30h4"/><path stroke="#6d90a8" d="M20,21h1M17,22h1M19,22h2M16,23h5M17,24h3M18,25h2M13,26h2M12,27h4M12,28h1M15,28h3M12,29h2M17,29h2M12,30h3M18,30h1"/><path stroke="#ffffff" d="M15,30h1M19,30h1"/><path stroke="#b5d6de" d="M16,30h1M20,30h1"/></svg>
