<?xml version="1.0" encoding="utf-8" ?>
<svg xmlns="http://www.w3.org/2000/svg" xmlns:ev="http://www.w3.org/2001/xml-events" xmlns:xlink="http://www.w3.org/1999/xlink" baseProfile="full" height="32px" version="1.1" viewBox="0 0 32 32" width="32px">
  <defs/>
  <g id="x2b2928_r43_g41_b40_a1.0">
    <path d="M 12,26 12,25 17,25 17,26 z" fill="#2b2928" fill-opacity="1.0" id="x2b2928_r43_g41_b40_a1.0_shape1"/>
    <path d="M 21,22 22,22 22,24 23,24 23,25 22,25 21,25 z" fill="#2b2928" fill-opacity="1.0" id="x2b2928_r43_g41_b40_a1.0_shape2"/>
    <path d="M 18,25 17,25 17,22 18,22 z" fill="#2b2928" fill-opacity="1.0" id="x2b2928_r43_g41_b40_a1.0_shape3"/>
    <path d="M 21,28 21,31 20,31 20,28 z" fill="#2b2928" fill-opacity="1.0" id="x2b2928_r43_g41_b40_a1.0_shape4"/>
    <path d="M 8,28 10,28 10,29 8,29 z" fill="#2b2928" fill-opacity="1.0" id="x2b2928_r43_g41_b40_a1.0_shape5"/>
    <path d="M 15,31 15,30 16,30 17,30 17,31 16,31 z" fill="#2b2928" fill-opacity="1.0" id="x2b2928_r43_g41_b40_a1.0_shape6"/>
    <path d="M 18,22 18,21 19,21 19,22 z" fill="#2b2928" fill-opacity="1.0" id="x2b2928_r43_g41_b40_a1.0_shape7"/>
    <path d="M 21,22 20,22 20,21 21,21 z" fill="#2b2928" fill-opacity="1.0" id="x2b2928_r43_g41_b40_a1.0_shape8"/>
    <path d="M 20,22 20,23 19,23 19,22 z" fill="#2b2928" fill-opacity="1.0" id="x2b2928_r43_g41_b40_a1.0_shape9"/>
    <path d="M 20,24 20,25 19,25 19,24 z" fill="#2b2928" fill-opacity="1.0" id="x2b2928_r43_g41_b40_a1.0_shape10"/>
    <path d="M 24,25 24,26 23,26 23,25 z" fill="#2b2928" fill-opacity="1.0" id="x2b2928_r43_g41_b40_a1.0_shape11"/>
    <path d="M 12,27 11,27 11,26 12,26 z" fill="#2b2928" fill-opacity="1.0" id="x2b2928_r43_g41_b40_a1.0_shape12"/>
    <path d="M 23,26 23,27 22,27 22,26 z" fill="#2b2928" fill-opacity="1.0" id="x2b2928_r43_g41_b40_a1.0_shape13"/>
    <path d="M 11,27 11,28 10,28 10,27 z" fill="#2b2928" fill-opacity="1.0" id="x2b2928_r43_g41_b40_a1.0_shape14"/>
    <path d="M 22,27 22,28 21,28 21,27 z" fill="#2b2928" fill-opacity="1.0" id="x2b2928_r43_g41_b40_a1.0_shape15"/>
    <path d="M 8,29 8,30 7,30 7,29 z" fill="#2b2928" fill-opacity="1.0" id="x2b2928_r43_g41_b40_a1.0_shape16"/>
    <path d="M 9,31 8,31 8,30 9,30 z" fill="#2b2928" fill-opacity="1.0" id="x2b2928_r43_g41_b40_a1.0_shape17"/>
    <path d="M 12,30 12,31 11,31 11,30 z" fill="#2b2928" fill-opacity="1.0" id="x2b2928_r43_g41_b40_a1.0_shape18"/>
    <path d="M 14,30 14,31 13,31 13,30 z" fill="#2b2928" fill-opacity="1.0" id="x2b2928_r43_g41_b40_a1.0_shape19"/>
    <path d="M 19,30 19,31 18,31 18,30 z" fill="#2b2928" fill-opacity="1.0" id="x2b2928_r43_g41_b40_a1.0_shape20"/>
  </g>
  <g id="xe09128_r224_g145_b40_a1.0">
    <path d="M 14,29 13,29 13,28 12,28 12,27 13,27 13,26 17,26 17,27 18,27 18,29 17,29 16,29 16,28 15,28 14,28 z" fill="#e09128" fill-opacity="1.0" id="xe09128_r224_g145_b40_a1.0_shape1"/>
    <path d="M 21,25 23,25 23,26 19,26 19,25 20,25 20,24 19,24 19,25 18,25 18,22 19,22 19,23 21,23 z" fill="#e09128" fill-opacity="1.0" id="xe09128_r224_g145_b40_a1.0_shape2"/>
  </g>
  <g id="x98c0d0_r152_g192_b208_a1.0">
    <path d="M 18,28 18,26 19,26 19,27 21,27 21,28 20,28 20,29 19,29 19,30 18,30 z" fill="#98c0d0" fill-opacity="1.0" id="x98c0d0_r152_g192_b208_a1.0_shape1"/>
    <path d="M 10,30 11,30 11,31 9,31 9,30 8,30 8,29 10,29 z" fill="#98c0d0" fill-opacity="1.0" id="x98c0d0_r152_g192_b208_a1.0_shape2"/>
    <path d="M 17,26 17,25 18,25 18,26 z" fill="#98c0d0" fill-opacity="1.0" id="x98c0d0_r152_g192_b208_a1.0_shape3"/>
  </g>
  <g id="xbd4306_r189_g67_b6_a1.0">
    <path d="M 11,28 11,27 12,27 12,30 10,30 10,29 10,28 z" fill="#bd4306" fill-opacity="1.0" id="xbd4306_r189_g67_b6_a1.0_shape1"/>
    <path d="M 15,29 16,29 16,30 15,30 14,30 14,29 z" fill="#bd4306" fill-opacity="1.0" id="xbd4306_r189_g67_b6_a1.0_shape2"/>
    <path d="M 13,27 12,27 12,26 13,26 z" fill="#bd4306" fill-opacity="1.0" id="xbd4306_r189_g67_b6_a1.0_shape3"/>
    <path d="M 19,29 20,29 20,30 19,30 z" fill="#bd4306" fill-opacity="1.0" id="xbd4306_r189_g67_b6_a1.0_shape4"/>
  </g>
  <g id="xe0540d_r224_g84_b13_a1.0">
    <path d="M 15,29 14,29 14,28 15,28 16,28 16,29 z" fill="#e0540d" fill-opacity="1.0" id="xe0540d_r224_g84_b13_a1.0_shape1"/>
    <path d="M 20,22 21,22 21,23 20,23 z" fill="#e0540d" fill-opacity="1.0" id="xe0540d_r224_g84_b13_a1.0_shape2"/>
    <path d="M 18,26 18,27 17,27 17,26 z" fill="#e0540d" fill-opacity="1.0" id="xe0540d_r224_g84_b13_a1.0_shape3"/>
    <path d="M 13,29 12,29 12,28 13,28 z" fill="#e0540d" fill-opacity="1.0" id="xe0540d_r224_g84_b13_a1.0_shape4"/>
    <path d="M 13,29 14,29 14,30 13,30 z" fill="#e0540d" fill-opacity="1.0" id="xe0540d_r224_g84_b13_a1.0_shape5"/>
    <path d="M 17,30 16,30 16,29 17,29 z" fill="#e0540d" fill-opacity="1.0" id="xe0540d_r224_g84_b13_a1.0_shape6"/>
  </g>
  <g id="xd8f8f8_r216_g248_b248_a1.0">
    <path d="M 22,26 22,27 19,27 19,26 z" fill="#d8f8f8" fill-opacity="1.0" id="xd8f8f8_r216_g248_b248_a1.0_shape1"/>
    <path d="M 19,25 19,26 18,26 18,25 z" fill="#d8f8f8" fill-opacity="1.0" id="xd8f8f8_r216_g248_b248_a1.0_shape2"/>
  </g>
  <g id="x4e4b49_r78_g75_b73_a1.0">
    <path d="M 13,29 13,31 12,31 12,29 z" fill="#4e4b49" fill-opacity="1.0" id="x4e4b49_r78_g75_b73_a1.0_shape1"/>
    <path d="M 18,30 18,31 17,31 17,30 17,29 18,29 z" fill="#4e4b49" fill-opacity="1.0" id="x4e4b49_r78_g75_b73_a1.0_shape2"/>
  </g>
  <g id="x3e3b39_r62_g59_b57_a1.0">
    <path d="M 14,31 14,30 15,30 15,31 z" fill="#3e3b39" fill-opacity="1.0" id="x3e3b39_r62_g59_b57_a1.0_shape1"/>
    <path d="M 19,31 19,30 20,30 20,31 z" fill="#3e3b39" fill-opacity="1.0" id="x3e3b39_r62_g59_b57_a1.0_shape2"/>
  </g>
</svg>
