<svg xmlns="http://www.w3.org/2000/svg" shape-rendering="crispEdges" viewBox="0 -0.5 32 32" width="32" height="32"><metadata>Generated with pixel-perfect-svg https://github.com/kagof/pixel-perfect-svg</metadata><path stroke="#2b2928" d="M15,23h2M19,23h2M15,24h1M17,24h2M20,24h1M13,25h4M19,25h1M12,26h1M20,26h1M11,27h1M19,27h1M21,27h1M10,28h1M21,28h1M10,29h1M18,29h3M11,30h1M15,30h2M19,30h1"/><path stroke="#d8f8f8" d="M16,24h1M17,25h1M13,26h3M17,26h3M12,27h4M17,27h2M20,27h1M12,28h5M18,28h3M12,29h2M16,29h2M12,30h3M17,30h2"/><path stroke="#98c0d0" d="M19,24h1M18,25h1M16,26h1M16,27h1M11,28h1M17,28h1M11,29h1M14,29h2"/></svg>
