<svg xmlns="http://www.w3.org/2000/svg" shape-rendering="crispEdges" viewBox="0 -0.5 32 32" width="32" height="32"><metadata>Generated with pixel-perfect-svg https://github.com/kagof/pixel-perfect-svg</metadata><path stroke="#2b2928" d="M17,22h2M16,23h1M19,23h1M16,24h1M19,24h1M13,25h3M20,25h1M12,26h1M19,26h1M21,26h1M11,27h1M21,27h1M10,28h1M18,28h3M10,29h1M15,29h2M18,29h1M11,30h1M15,30h1M17,30h1"/><path stroke="#d8f8f8" d="M17,23h1M17,24h1M17,25h3M13,26h3M17,26h2M20,26h1M12,27h5M18,27h3M12,28h3M16,28h2M12,29h2M17,29h1M12,30h3"/><path stroke="#98c0d0" d="M18,23h1M18,24h1M16,25h1M16,26h1M17,27h1M11,28h1M15,28h1M11,29h1M14,29h1"/></svg>
