<svg xmlns="http://www.w3.org/2000/svg" shape-rendering="crispEdges" viewBox="0 -0.5 32 32" width="32" height="32"><metadata>Generated with pixel-perfect-svg https://github.com/kagof/pixel-perfect-svg</metadata><path stroke="#2b2928" d="M16,21h2M15,22h1M18,22h1M16,23h1M19,23h1M13,24h3M20,24h1M12,25h1M19,25h1M21,25h1M11,26h1M21,26h1M10,27h1M19,27h2M10,28h1M15,28h3M20,28h1M11,29h1M14,29h1M18,29h2M12,30h1M15,30h1"/><path stroke="#d8f8f8" d="M16,22h1M17,23h1M17,24h3M13,25h3M17,25h2M20,25h1M12,26h5M18,26h3M12,27h3M17,27h2M12,28h2M18,28h2M12,29h2M13,30h2"/><path stroke="#98c0d0" d="M17,22h1M18,23h1M16,24h1M16,25h1M17,26h1M11,27h1M15,27h2M11,28h1M14,28h1"/></svg>
