<svg xmlns="http://www.w3.org/2000/svg" shape-rendering="crispEdges" viewBox="0 -0.5 32 32" width="32" height="32"><metadata>Generated with pixel-perfect-svg https://github.com/kagof/pixel-perfect-svg</metadata><path stroke="#2b2928" d="M15,22h3M13,23h2M18,23h2M12,24h1M20,24h1M11,25h1M19,25h1M21,25h1M10,26h1M21,26h1M10,27h1M19,27h2M9,28h1M12,28h7M21,28h1M10,29h2M19,29h2"/><path stroke="#d8f8f8" d="M15,23h2M13,24h3M17,24h3M12,25h4M17,25h2M20,25h1M12,26h5M18,26h3M11,27h3M17,27h2M10,28h2M19,28h2"/><path stroke="#98c0d0" d="M17,23h1M16,24h1M16,25h1M11,26h1M17,26h1M14,27h3"/></svg>
